<svg xmlns="http://www.w3.org/2000/svg" viewBox="0 0 32 32">
  <defs>
    <linearGradient id="g" x1="0" y1="0" x2="1" y2="1">
      <stop offset="0%" stop-color="#3b82f6"/>
      <stop offset="100%" stop-color="#8b5cf6"/>
    </linearGradient>
  </defs>
  <rect x="1" y="1" width="30" height="30" rx="7" fill="url(#g)"/>
  <g fill="none" stroke="#ffffff" stroke-width="2" stroke-linecap="round" stroke-linejoin="round" transform="translate(4 4)">
    <line x1="16.5" y1="9.4" x2="7.5" y2="4.21"/>
    <path d="M21 16V8a2 2 0 0 0-1-1.73l-7-4a2 2 0 0 0-2 0l-7 4A2 2 0 0 0 3 8v8a2 2 0 0 0 1 1.73l7 4a2 2 0 0 0 2 0l7-4A2 2 0 0 0 21 16z"/>
    <polyline points="3.27 6.96 12 12.01 20.73 6.96"/>
    <line x1="12" y1="22.08" x2="12" y2="12"/>
  </g>
</svg>
